<?xml version="1.0" encoding="UTF-8" standalone="no"?>
<!-- Created with Inkscape (http://www.inkscape.org/) -->

<svg
   xmlns:dc="http://purl.org/dc/elements/1.1/"
   xmlns:cc="http://creativecommons.org/ns#"
   xmlns:rdf="http://www.w3.org/1999/02/22-rdf-syntax-ns#"
   xmlns:svg="http://www.w3.org/2000/svg"
   xmlns="http://www.w3.org/2000/svg"
   xmlns:sodipodi="http://sodipodi.sourceforge.net/DTD/sodipodi-0.dtd"
   xmlns:inkscape="http://www.inkscape.org/namespaces/inkscape"
   width="295.26251mm"
   height="91.798164mm"
   viewBox="0 0 1046.2058 325.26909"
   id="svg2"
   version="1.1"
   inkscape:version="0.91 r13725"
   sodipodi:docname="iot-dsm-logo.svg">
  <defs
     id="defs4" />
  <sodipodi:namedview
     id="base"
     pagecolor="#ffffff"
     bordercolor="#666666"
     borderopacity="1.0"
     inkscape:pageopacity="0.0"
     inkscape:pageshadow="2"
     inkscape:zoom="0.7"
     inkscape:cx="492.2912"
     inkscape:cy="5.9838707"
     inkscape:document-units="px"
     inkscape:current-layer="g3374"
     showgrid="false"
     fit-margin-top="0"
     fit-margin-left="0"
     fit-margin-right="0"
     fit-margin-bottom="0"
     showguides="true"
     inkscape:guide-bbox="true"
     inkscape:window-width="1920"
     inkscape:window-height="1016"
     inkscape:window-x="0"
     inkscape:window-y="27"
     inkscape:window-maximized="1">
    <sodipodi:guide
       position="352.14281,166.42853"
       orientation="0,1"
       id="guide3351" />
    <sodipodi:guide
       position="358.57139,-189.99997"
       orientation="1,0"
       id="guide3402" />
  </sodipodi:namedview>
  <metadata
     id="metadata7">
    <rdf:RDF>
      <cc:Work
         rdf:about="">
        <dc:format>image/svg+xml</dc:format>
        <dc:type
           rdf:resource="http://purl.org/dc/dcmitype/StillImage" />
        <dc:title></dc:title>
      </cc:Work>
    </rdf:RDF>
  </metadata>
  <g
     inkscape:label="Layer 1"
     inkscape:groupmode="layer"
     id="layer1"
     transform="translate(-209.4127,-363.54652)">
    <g
       id="g3355"
       inkscape:export-xdpi="300"
       inkscape:export-ydpi="300">
      <g
         id="g3374"
         inkscape:export-xdpi="90"
         inkscape:export-ydpi="90">
        <flowRoot
           xml:space="preserve"
           id="flowRoot3471"
           style="font-style:normal;font-weight:normal;font-size:40px;line-height:125%;font-family:sans-serif;letter-spacing:0px;word-spacing:0px;fill:#000000;fill-opacity:1;stroke:none;stroke-width:1px;stroke-linecap:butt;stroke-linejoin:miter;stroke-opacity:1"
           inkscape:export-xdpi="90"
           inkscape:export-ydpi="90"><flowRegion
             id="flowRegion3473"><rect
               id="rect3475"
               width="293.95438"
               height="250.51784"
               x="209.10158"
               y="405.86456" /></flowRegion><flowPara
             id="flowPara3477" /></flowRoot>        <circle
           style="fill:#0687dd;fill-opacity:1;stroke:none"
           id="path3495"
           cx="372.04724"
           cy="526.18109"
           r="162.63457"
           inkscape:export-xdpi="45"
           inkscape:export-ydpi="45" />
        <path
           id="path3439"
           d="m 260.74769,481.8311 0,73.9 c 0,2.9 2.4,5.3 5.3,5.3 2.9,0 5.3,-2.4 5.3,-5.3 l 0,-73.8 c 11.3,-2.4 19.8,-12.4 19.8,-24.4 0,-13.8 -11.2,-24.9 -24.9,-24.9 -13.8,0 -24.9,11.2 -24.9,24.9 -0.1,11.9 8.3,21.8 19.4,24.3 z m 5.4,-38.6 c 7.9,0 14.3,6.4 14.3,14.3 0,7.9 -6.4,14.3 -14.3,14.3 -7.9,0 -14.3,-6.4 -14.3,-14.3 0,-7.9 6.4,-14.3 14.3,-14.3 z"
           class="st1"
           inkscape:connector-curvature="0"
           style="fill:#ffffff"
           inkscape:export-xdpi="45"
           inkscape:export-ydpi="45" />
        <path
           id="path3441"
           d="m 298.44769,445.5311 c 0.8,0 1.7,-0.2 2.5,-0.6 l 55.9,-29.5 c 4.1,4.6 10,7.6 16.6,7.6 12.3,0 22.2,-10 22.2,-22.2 0,-12.3 -10,-22.2 -22.2,-22.2 -12.2,0 -22.3,9.9 -22.3,22.1 0,1.8 0.3,3.6 0.7,5.3 l -55.8,29.5 c -2.6,1.4 -3.6,4.6 -2.2,7.2 0.9,1.8 2.7,2.8 4.6,2.8 z m 75,-56.4 c 6.4,0 11.6,5.2 11.6,11.6 0,6.4 -5.2,11.6 -11.6,11.6 -6.4,0 -11.6,-5.2 -11.6,-11.6 -0.1,-6.4 5.2,-11.6 11.6,-11.6 z"
           class="st1"
           inkscape:connector-curvature="0"
           style="fill:#ffffff"
           inkscape:export-xdpi="45"
           inkscape:export-ydpi="45" />
        <path
           id="path3443"
           d="m 342.04769,629.3311 -53.9,-33.2 c 0.7,-2.1 1.1,-4.3 1.1,-6.7 0,-12.3 -10,-22.2 -22.2,-22.2 -12.2,0 -22.2,10 -22.2,22.2 0,12.3 10,22.2 22.2,22.2 6.1,0 11.6,-2.5 15.7,-6.5 l 53.7,33.1 c 0.9,0.5 1.8,0.8 2.8,0.8 1.8,0 3.5,-0.9 4.5,-2.5 1.5,-2.4 0.8,-5.6 -1.7,-7.2 z m -75,-28.2 c -6.4,0 -11.6,-5.2 -11.6,-11.6 0,-6.4 5.2,-11.6 11.6,-11.6 6.4,0 11.6,5.2 11.6,11.6 0,6.4 -5.2,11.6 -11.6,11.6 z"
           class="st1"
           inkscape:connector-curvature="0"
           style="fill:#ffffff"
           inkscape:export-xdpi="45"
           inkscape:export-ydpi="45" />
        <path
           id="path3445"
           d="m 482.94769,565.5311 0,-73.9 c 0,-2.9 -2.4,-5.3 -5.3,-5.3 -2.9,0 -5.3,2.4 -5.3,5.3 l 0,73.9 c -11.1,2.5 -19.5,12.4 -19.5,24.3 0,13.7 11.2,24.9 24.9,24.9 13.8,0 25,-11.2 25,-24.9 0,-11.9 -8.5,-21.9 -19.8,-24.3 z m -5.2,38.7 c -7.9,0 -14.3,-6.4 -14.3,-14.3 0,-7.9 6.4,-14.3 14.3,-14.3 7.9,0 14.4,6.4 14.4,14.3 0,7.8 -6.4,14.3 -14.4,14.3 z"
           class="st1"
           inkscape:connector-curvature="0"
           style="fill:#ffffff"
           inkscape:export-xdpi="45"
           inkscape:export-ydpi="45" />
        <path
           id="path3447"
           d="m 441.84769,601.9311 -53.4,33.6 c -4,-3.8 -9.4,-6.2 -15.3,-6.2 -12.3,0 -22.2,10 -22.2,22.2 0,12.3 10,22.2 22.2,22.2 12.3,0 22.2,-10 22.2,-22.2 0,-2.5 -0.5,-4.8 -1.3,-7.1 l 53.5,-33.6 c 2.5,-1.6 3.2,-4.8 1.7,-7.3 -1.6,-2.4 -4.9,-3.2 -7.4,-1.6 z m -68.8,61.3 c -6.4,0 -11.6,-5.2 -11.6,-11.6 0,-6.4 5.2,-11.6 11.6,-11.6 6.4,0 11.6,5.2 11.6,11.6 0,6.4 -5.2,11.6 -11.6,11.6 z"
           class="st1"
           inkscape:connector-curvature="0"
           style="fill:#ffffff"
           inkscape:export-xdpi="45"
           inkscape:export-ydpi="45" />
        <path
           id="path3449"
           d="m 402.84769,420.2311 54.4,32.1 c -0.6,2.1 -1.1,4.2 -1.1,6.5 0,12.3 10,22.2 22.2,22.2 12.3,0 22.2,-10 22.2,-22.2 0,-12.3 -10,-22.2 -22.2,-22.2 -6.2,0 -11.8,2.5 -15.8,6.6 l -54.4,-32.1 c -2.5,-1.5 -5.8,-0.6 -7.3,1.9 -1.4,2.5 -0.6,5.7 2,7.2 z m 75.5,26.9 c 6.4,0 11.6,5.2 11.6,11.6 0,6.4 -5.2,11.6 -11.6,11.6 -6.4,0 -11.6,-5.2 -11.6,-11.6 0,-6.3 5.2,-11.6 11.6,-11.6 z"
           class="st1"
           inkscape:connector-curvature="0"
           style="fill:#ffffff"
           inkscape:export-xdpi="45"
           inkscape:export-ydpi="45" />
        <path
           id="path3451"
           d="m 449.54769,560.4311 -21.9,-11.3 c -0.1,0 -0.1,0 -0.2,-0.1 3.7,-7.8 5.8,-16.4 5.8,-25.6 0,-10 -2.5,-19.5 -6.9,-27.8 l 22.1,-12.8 c 1.8,-1.1 2.5,-3.4 1.4,-5.2 l -0.1,-0.3 c -1.1,-1.8 -3.4,-2.5 -5.2,-1.4 l -22.4,12.9 c -10.1,-14.2 -26.3,-23.7 -44.7,-24.9 l 0,-26.1 c 0,-2.1 -1.7,-3.8 -3.8,-3.8 l -0.3,0 c -2.1,0 -3.8,1.7 -3.8,3.8 l 0,26.1 c -19.4,1.3 -36.3,11.9 -46.2,27.5 l -22.4,-12.9 c -1.8,-1.1 -4.2,-0.4 -5.2,1.4 l -0.1,0.3 c -1.1,1.8 -0.4,4.2 1.4,5.2 l 22.5,13 c -3.6,7.6 -5.6,16.1 -5.6,25.1 0,8.2 1.6,15.9 4.6,23 l -21.4,14.1 c -1.8,1.2 -2.2,3.5 -1.1,5.3 l 0.2,0.2 c 1.2,1.8 3.5,2.2 5.3,1.1 l 20.6,-13.7 c 9.7,16.5 27.2,28 47.4,29.4 l 0,25.8 c 0,2.1 1.7,3.8 3.8,3.8 l 0.3,0 c 2.1,0 3.8,-1.7 3.8,-3.8 l 0,-25.8 c 19.3,-1.3 36.2,-11.7 46.2,-27.1 0.1,0.1 0.3,0.2 0.4,0.3 l 21.9,11.3 c 1.9,1 4.2,0.2 5.2,-1.6 l 0.1,-0.3 c 0.9,-1.8 0.2,-4.1 -1.7,-5.1 z m -32.5,-70.5 c 6.7,8.7 10.9,19.5 11.4,31.2 l -23.8,0 c -0.2,-9 -1.4,-17.5 -3.3,-25 5.7,-1.6 11.1,-3.7 15.7,-6.2 z m -3.2,-3.7 c -4.1,2.1 -8.8,3.9 -13.9,5.3 -2.9,-8.9 -6.9,-16.1 -11.8,-21 10,2.8 18.9,8.3 25.7,15.7 z m -42.7,39.6 0,21.6 c -7.2,0.1 -14.1,0.9 -20.6,2.3 -1.9,-7.2 -3.1,-15.3 -3.3,-23.9 l 23.9,0 z m -23.8,-4.7 c 0.2,-8.6 1.4,-16.7 3.3,-23.9 6.5,1.4 13.4,2.2 20.6,2.3 l 0,21.5 -23.9,0 z m 28.6,4.7 23.8,0 c -0.2,8.6 -1.4,16.7 -3.3,23.9 -6.5,-1.4 -13.4,-2.2 -20.6,-2.3 l 0,-21.6 z m 0,-4.7 0,-21.6 c 7.2,-0.1 14.1,-0.9 20.6,-2.3 1.9,7.2 3.1,15.3 3.3,23.9 l -23.9,0 z m 19.2,-28.5 c -6,1.3 -12.5,2 -19.2,2.1 l 0,-25.9 c 7.9,1.5 14.9,10.7 19.2,23.8 z m -24,-23.8 0,25.9 c -6.7,-0.1 -13.2,-0.9 -19.2,-2.1 4.4,-13.1 11.4,-22.3 19.2,-23.8 z m -12.1,1.7 c -4.9,4.9 -8.9,12.1 -11.8,21 -5.1,-1.4 -9.8,-3.2 -13.9,-5.3 6.8,-7.4 15.7,-12.9 25.7,-15.7 z m -28.9,19.4 c 4.6,2.5 9.9,4.6 15.7,6.1 -2,7.5 -3.2,16 -3.3,25 l -23.8,0 c 0.5,-11.6 4.7,-22.4 11.4,-31.1 z m 0,67.1 c -2,-2.6 -3.8,-5.3 -5.3,-8.3 -0.1,-0.4 -0.3,-0.8 -0.5,-1.2 l -0.2,-0.2 c 0,-0.1 -0.1,-0.1 -0.1,-0.2 -3.1,-6.5 -5,-13.7 -5.3,-21.3 l 23.8,0 c 0.2,9 1.4,17.5 3.3,25 -5.8,1.6 -11.1,3.7 -15.7,6.2 z m 3.2,3.7 c 4.1,-2.1 8.8,-3.9 13.9,-5.3 2.9,8.9 6.9,16.1 11.8,21 -10,-2.8 -18.9,-8.3 -25.7,-15.7 z m 18.7,-6.4 c 6,-1.3 12.5,-2 19.2,-2.1 l 0,25.9 c -7.9,-1.6 -14.9,-10.7 -19.2,-23.8 z m 23.9,23.8 0,-25.9 c 6.7,0.1 13.2,0.9 19.2,2.1 -4.3,13.1 -11.3,22.2 -19.2,23.8 z m 12.2,-1.7 c 4.9,-4.9 8.9,-12.1 11.8,-21 5.1,1.4 9.8,3.2 13.9,5.3 -6.9,7.4 -15.7,12.9 -25.7,15.7 z m 13.1,-25.6 c 2,-7.5 3.2,-16 3.3,-25 l 23.8,0 c -0.5,11.7 -4.7,22.5 -11.4,31.2 -4.5,-2.5 -9.9,-4.6 -15.7,-6.2 z"
           class="st1"
           inkscape:connector-curvature="0"
           style="fill:#ffffff"
           inkscape:export-xdpi="45"
           inkscape:export-ydpi="45" />
        <text
           xml:space="preserve"
           style="font-style:normal;font-weight:normal;font-size:70px;line-height:125%;font-family:sans-serif;letter-spacing:0px;word-spacing:0px;fill:#000000;fill-opacity:1;stroke:none;stroke-width:1px;stroke-linecap:butt;stroke-linejoin:miter;stroke-opacity:1"
           x="562.71814"
           y="461.41602"
           id="text3506"
           sodipodi:linespacing="125%"
           inkscape:export-xdpi="45"
           inkscape:export-ydpi="45"><tspan
             sodipodi:role="line"
             id="tspan3508"
             x="562.71814"
             y="461.41602"
             style="font-style:normal;font-variant:normal;font-weight:normal;font-stretch:normal;font-family:'Amiri Quran';-inkscape-font-specification:'Amiri Quran'">Internet of Things</tspan><tspan
             sodipodi:role="line"
             x="562.71814"
             y="548.91602"
             style="font-style:normal;font-variant:normal;font-weight:normal;font-stretch:normal;font-family:'Amiri Quran';-inkscape-font-specification:'Amiri Quran'"
             id="tspan3349">Data as a Service </tspan><tspan
             id="tspan3372"
             sodipodi:role="line"
             x="562.71814"
             y="636.41602"
             style="font-style:normal;font-variant:normal;font-weight:normal;font-stretch:normal;font-family:'Amiri Quran';-inkscape-font-specification:'Amiri Quran'">Middleware - <tspan
   style="font-size:60.00000381px"
   id="tspan3353">IoTDSM</tspan></tspan></text>
      </g>
    </g>
  </g>
  <style
     id="style3433"
     type="text/css">
	.st0{fill:#3765AF;}
	.st1{fill:#FFFFFF;}
</style>
</svg>
